<svg xmlns="http://www.w3.org/2000/svg" viewBox="0 0 61.64 61.62"><title>Asset 1</title><g id="Layer_2" data-name="Layer 2"><g id="Layer_1-2" data-name="Layer 1"><path d="M31.11,55H2.33a2.2,2.2,0,1,1,0-4.4H31.11a8.76,8.76,0,0,1,3.77-5.21A8.18,8.18,0,0,1,40.05,44c4.18.32,6.79,2.64,8.12,6.58H59.25a2.21,2.21,0,1,1,0,4.4H48.13a8.79,8.79,0,0,1-4,5.33A8.58,8.58,0,0,1,39,61.59,8.81,8.81,0,0,1,31.11,55Z"/><path d="M6.9,33H2.32a2.2,2.2,0,1,1,0-4.4H6.88a8.8,8.8,0,0,1,17.05,0H59.32a2.14,2.14,0,0,1,2.06,1.2,2.09,2.09,0,0,1-.21,2.33,2.19,2.19,0,0,1-1.91.87H23.93a8.79,8.79,0,0,1-3.79,5.22,8.55,8.55,0,0,1-5.28,1.37A8.84,8.84,0,0,1,6.9,33Z"/><path d="M35.5,6.61a8.81,8.81,0,0,1,17.06,0h6.86a2.2,2.2,0,0,1,0,4.4H52.53a8.83,8.83,0,0,1-4,5.33,8.51,8.51,0,0,1-5.2,1.25A8.8,8.8,0,0,1,35.51,11H2.33A2.2,2.2,0,0,1,2,6.62H35.5Z"/></g></g></svg>