<svg xmlns="http://www.w3.org/2000/svg" viewBox="0 0 15 12"><defs><style>.cls-1{fill:#515151;}</style></defs><title>Asset 4</title><g id="Layer_2" data-name="Layer 2"><g id="Layer_1-2" data-name="Layer 1"><path class="cls-1" d="M7.36,6.75a3.08,3.08,0,0,1,1.57.42,3.17,3.17,0,0,1,1.15,1.15,3.08,3.08,0,0,1,.42,1.57v1A1.13,1.13,0,0,1,9.38,12H1.13a1.08,1.08,0,0,1-.8-.33A1.07,1.07,0,0,1,0,10.88v-1A3.08,3.08,0,0,1,.42,8.32,3.17,3.17,0,0,1,1.57,7.17a3.08,3.08,0,0,1,1.57-.42h.4A4,4,0,0,0,7,6.75ZM5.25,6a2.92,2.92,0,0,1-1.51-.4A2.85,2.85,0,0,1,2.65,4.51,2.92,2.92,0,0,1,2.25,3a2.92,2.92,0,0,1,.4-1.51A2.85,2.85,0,0,1,3.74.4,2.92,2.92,0,0,1,5.25,0,2.92,2.92,0,0,1,6.76.4,2.85,2.85,0,0,1,7.85,1.49,2.92,2.92,0,0,1,8.25,3a2.92,2.92,0,0,1-.4,1.51A2.85,2.85,0,0,1,6.76,5.6,2.92,2.92,0,0,1,5.25,6Zm9.38-1.12a.35.35,0,0,1,.26.1.37.37,0,0,1,.11.27V6a.37.37,0,0,1-.11.27.36.36,0,0,1-.26.11h-1.5v1.5a.36.36,0,0,1-.11.26.37.37,0,0,1-.27.11H12a.37.37,0,0,1-.27-.11.35.35,0,0,1-.1-.26V6.38h-1.5A.38.38,0,0,1,9.75,6V5.25A.37.37,0,0,1,9.86,5a.36.36,0,0,1,.27-.1h1.5V3.38a.36.36,0,0,1,.1-.27A.37.37,0,0,1,12,3h.75a.38.38,0,0,1,.38.38v1.5Z"/></g></g></svg>