<svg xmlns="http://www.w3.org/2000/svg" viewBox="0 0 11.63 11.63"><defs><style>.cls-1{fill:#707070;}</style></defs><title>Asset 1</title><g id="Layer_2" data-name="Layer 2"><g id="Layer_1-2" data-name="Layer 1"><path class="cls-1" d="M2.91,10.84A5.82,5.82,0,0,1,.79,8.72,5.58,5.58,0,0,1,0,5.81a5.57,5.57,0,0,1,.79-2.9A5.82,5.82,0,0,1,2.91.79,5.57,5.57,0,0,1,5.81,0,5.58,5.58,0,0,1,8.72.79a5.82,5.82,0,0,1,2.12,2.12,5.74,5.74,0,0,1,0,5.81,5.82,5.82,0,0,1-2.12,2.12,5.74,5.74,0,0,1-5.81,0ZM6.33,9.38a.52.52,0,0,0,.4.18.55.55,0,0,0,.4-.16L7.52,9a.54.54,0,0,0,.17-.39A.49.49,0,0,0,7.5,8.2L5.13,5.81,7.52,3.42A.54.54,0,0,0,7.69,3a.43.43,0,0,0-.19-.37l-.37-.42a.64.64,0,0,0-.42-.17.53.53,0,0,0-.38.17L3.14,5.41a.55.55,0,0,0-.16.4.54.54,0,0,0,.16.4Z"/></g></g></svg>