<svg xmlns="http://www.w3.org/2000/svg" viewBox="0 0 11.63 11.63"><defs><style>.cls-1{fill:#4285f4;}</style></defs><title>Asset 28</title><g id="Layer_2" data-name="Layer 2"><g id="Layer_1-2" data-name="Layer 1"><path class="cls-1" d="M10.84,8.72a5.82,5.82,0,0,1-2.12,2.12,5.68,5.68,0,0,1-2.91.79,5.78,5.78,0,0,1-1.94-.34,6.2,6.2,0,0,1-1.71-.95A.53.53,0,0,1,2,9.93a.57.57,0,0,1,.17-.44l.26-.26a.56.56,0,0,1,.36-.15.58.58,0,0,1,.39.11,4.18,4.18,0,0,0,2.67.94A4.3,4.3,0,0,0,8,9.55,4.22,4.22,0,0,0,9.55,8,4.33,4.33,0,0,0,4.21,1.8a4.35,4.35,0,0,0-1.35.87l1.19,1.2a.35.35,0,0,1,.08.4.36.36,0,0,1-.36.23H.38a.37.37,0,0,1-.27-.11A.36.36,0,0,1,0,4.13V.73A.34.34,0,0,1,.23.38a.33.33,0,0,1,.4.07L1.8,1.62A5.69,5.69,0,0,1,5.81,0,5.58,5.58,0,0,1,8.72.79a5.85,5.85,0,0,1,2.12,2.1,5.77,5.77,0,0,1,0,5.83ZM7.62,7.36a.58.58,0,0,0,.11-.42.49.49,0,0,0-.21-.38l-1-.75V3.38A.54.54,0,0,0,6.4,3,.54.54,0,0,0,6,2.81H5.63a.58.58,0,0,0-.57.57V6.56l1.53,1.2a.57.57,0,0,0,.79-.12Z"/><path d="M10.84,8.72a5.82,5.82,0,0,1-2.12,2.12,5.68,5.68,0,0,1-2.91.79,5.78,5.78,0,0,1-1.94-.34,6.2,6.2,0,0,1-1.71-.95A.53.53,0,0,1,2,9.93a.57.57,0,0,1,.17-.44l.26-.26a.56.56,0,0,1,.36-.15.58.58,0,0,1,.39.11,4.18,4.18,0,0,0,2.67.94A4.3,4.3,0,0,0,8,9.55,4.22,4.22,0,0,0,9.55,8,4.33,4.33,0,0,0,4.21,1.8a4.35,4.35,0,0,0-1.35.87l1.19,1.2a.35.35,0,0,1,.08.4.36.36,0,0,1-.36.23H.38a.37.37,0,0,1-.27-.11A.36.36,0,0,1,0,4.13V.73A.34.34,0,0,1,.23.38a.33.33,0,0,1,.4.07L1.8,1.62A5.69,5.69,0,0,1,5.81,0,5.58,5.58,0,0,1,8.72.79a5.85,5.85,0,0,1,2.12,2.1,5.77,5.77,0,0,1,0,5.83ZM7.62,7.36a.58.58,0,0,0,.11-.42.49.49,0,0,0-.21-.38l-1-.75V3.38A.54.54,0,0,0,6.4,3,.54.54,0,0,0,6,2.81H5.63a.58.58,0,0,0-.57.57V6.56l1.53,1.2a.57.57,0,0,0,.79-.12Z"/></g></g></svg>