<svg xmlns="http://www.w3.org/2000/svg" viewBox="0 0 11.63 11.63"><defs><style>.cls-1{fill:#ff7676;}</style></defs><title>Asset 2</title><g id="Layer_2" data-name="Layer 2"><g id="Layer_1-2" data-name="Layer 1"><path class="cls-1" d="M5.81,0A5.58,5.58,0,0,1,8.72.79a5.82,5.82,0,0,1,2.12,2.12,5.74,5.74,0,0,1,0,5.81,5.82,5.82,0,0,1-2.12,2.12,5.74,5.74,0,0,1-5.81,0A5.82,5.82,0,0,1,.79,8.72,5.58,5.58,0,0,1,0,5.81a5.57,5.57,0,0,1,.79-2.9A5.82,5.82,0,0,1,2.91.79,5.57,5.57,0,0,1,5.81,0ZM8.67,7.34,7.13,5.81,8.67,4.29a.32.32,0,0,0,0-.4L7.73,3a.25.25,0,0,0-.18-.07A.38.38,0,0,0,7.34,3L5.81,4.5,4.29,3a.32.32,0,0,0-.4,0L3,3.89a.29.29,0,0,0-.07.19A.38.38,0,0,0,3,4.29L4.5,5.81,3,7.34a.35.35,0,0,0-.07.2A.34.34,0,0,0,3,7.73l.94.94a.25.25,0,0,0,.19.07.31.31,0,0,0,.21-.07L5.81,7.13,7.34,8.67a.29.29,0,0,0,.2.07.28.28,0,0,0,.19-.07l.94-.94a.21.21,0,0,0,.07-.18A.31.31,0,0,0,8.67,7.34Z"/></g></g></svg>