<svg xmlns="http://www.w3.org/2000/svg" viewBox="0 0 15 10.5"><defs><style>.cls-1{fill:#4285f4;}</style></defs><title>Asset 14</title><g id="Layer_2" data-name="Layer 2"><g id="Layer_1-2" data-name="Layer 1"><path class="cls-1" d="M4.05,5.7a3.44,3.44,0,0,0-1.17,1,3.49,3.49,0,0,0-.58,1.5H.75A.73.73,0,0,1,.22,8,.73.73,0,0,1,0,7.5V6.75a1.41,1.41,0,0,1,.45-1A1.41,1.41,0,0,1,1.5,5.25H3A1.41,1.41,0,0,1,4.05,5.7ZM2.25,4.5a1.41,1.41,0,0,1-1-.45A1.41,1.41,0,0,1,.75,3,1.41,1.41,0,0,1,1.2,2,1.41,1.41,0,0,1,2.25,1.5,1.41,1.41,0,0,1,3.3,2,1.41,1.41,0,0,1,3.75,3a1.41,1.41,0,0,1-.45,1A1.41,1.41,0,0,1,2.25,4.5ZM9.3,6a2.62,2.62,0,0,1,1.35.36,2.76,2.76,0,0,1,1,1A2.62,2.62,0,0,1,12,8.7v.68a1.13,1.13,0,0,1-1.12,1.12H4.13A1.13,1.13,0,0,1,3,9.38V8.7a2.62,2.62,0,0,1,.36-1.35,2.76,2.76,0,0,1,1-1A2.62,2.62,0,0,1,5.7,6h.18A3.64,3.64,0,0,0,9.12,6ZM7.5,5.25A2.62,2.62,0,0,1,5.23,3.94a2.55,2.55,0,0,1-.35-1.31,2.56,2.56,0,0,1,.35-1.32,2.62,2.62,0,0,1,4.54,0,2.58,2.58,0,0,1,0,2.63A2.62,2.62,0,0,1,7.5,5.25Zm6,0a1.41,1.41,0,0,1,1.05.45,1.41,1.41,0,0,1,.45,1V7.5a.75.75,0,0,1-.75.75H12.7a3.37,3.37,0,0,0-.58-1.5A3.44,3.44,0,0,0,11,5.7,1.41,1.41,0,0,1,12,5.25Zm-.75-.75a1.41,1.41,0,0,1-1.05-.45,1.41,1.41,0,0,1-.45-1,1.41,1.41,0,0,1,.45-1,1.45,1.45,0,0,1,2.1,0A1.41,1.41,0,0,1,14.25,3a1.41,1.41,0,0,1-.45,1A1.41,1.41,0,0,1,12.75,4.5Z"/><path d="M4.05,5.7a3.44,3.44,0,0,0-1.17,1,3.49,3.49,0,0,0-.58,1.5H.75A.73.73,0,0,1,.22,8,.73.73,0,0,1,0,7.5V6.75a1.41,1.41,0,0,1,.45-1A1.41,1.41,0,0,1,1.5,5.25H3A1.41,1.41,0,0,1,4.05,5.7ZM2.25,4.5a1.41,1.41,0,0,1-1-.45A1.41,1.41,0,0,1,.75,3,1.41,1.41,0,0,1,1.2,2,1.41,1.41,0,0,1,2.25,1.5,1.41,1.41,0,0,1,3.3,2,1.41,1.41,0,0,1,3.75,3a1.41,1.41,0,0,1-.45,1A1.41,1.41,0,0,1,2.25,4.5ZM9.3,6a2.62,2.62,0,0,1,1.35.36,2.76,2.76,0,0,1,1,1A2.62,2.62,0,0,1,12,8.7v.68a1.13,1.13,0,0,1-1.12,1.12H4.13A1.13,1.13,0,0,1,3,9.38V8.7a2.62,2.62,0,0,1,.36-1.35,2.76,2.76,0,0,1,1-1A2.62,2.62,0,0,1,5.7,6h.18A3.64,3.64,0,0,0,9.12,6ZM7.5,5.25A2.62,2.62,0,0,1,5.23,3.94a2.55,2.55,0,0,1-.35-1.31,2.56,2.56,0,0,1,.35-1.32,2.62,2.62,0,0,1,4.54,0,2.58,2.58,0,0,1,0,2.63A2.62,2.62,0,0,1,7.5,5.25Zm6,0a1.41,1.41,0,0,1,1.05.45,1.41,1.41,0,0,1,.45,1V7.5a.75.75,0,0,1-.75.75H12.7a3.37,3.37,0,0,0-.58-1.5A3.44,3.44,0,0,0,11,5.7,1.41,1.41,0,0,1,12,5.25Zm-.75-.75a1.41,1.41,0,0,1-1.05-.45,1.41,1.41,0,0,1-.45-1,1.41,1.41,0,0,1,.45-1,1.45,1.45,0,0,1,2.1,0A1.41,1.41,0,0,1,14.25,3a1.41,1.41,0,0,1-.45,1A1.41,1.41,0,0,1,12.75,4.5Z"/></g></g></svg>