<svg xmlns="http://www.w3.org/2000/svg" viewBox="0 0 13.5 10.5"><title>Asset 5</title><g id="Layer_2" data-name="Layer 2"><g id="Layer_1-2" data-name="Layer 1"><path d="M1.18,10.34a1.11,1.11,0,0,1-.41-.45A6.63,6.63,0,0,1,0,6.75,6.73,6.73,0,0,1,6.75,0,6.73,6.73,0,0,1,13.5,6.75a6.63,6.63,0,0,1-.77,3.14,1.09,1.09,0,0,1-1,.61H1.78A1.12,1.12,0,0,1,1.18,10.34ZM1,6.22A.75.75,0,0,0,1,7.28a.73.73,0,0,0,.53.22A.75.75,0,0,0,1.5,6,.73.73,0,0,0,1,6.22ZM2.51,2.51A.71.71,0,0,0,2.3,3a.72.72,0,0,0,.21.53A.69.69,0,0,0,3,3.8a.7.7,0,0,0,.53-.23A.7.7,0,0,0,3.8,3a.69.69,0,0,0-.23-.53.72.72,0,0,0-.52-.21A.73.73,0,0,0,2.51,2.51ZM8,3.06a.53.53,0,0,0-.28.34L6.63,6.75a1.42,1.42,0,0,0-1,.48,1.47,1.47,0,0,0-.4,1,1.43,1.43,0,0,0,.43,1.05,1.46,1.46,0,0,0,1.07.43,1.47,1.47,0,0,0,1.5-1.5A1.43,1.43,0,0,0,7.71,7.1L8.79,3.73a.55.55,0,0,0,0-.43A.53.53,0,0,0,8.41,3,.56.56,0,0,0,8,3.06ZM7.28,2A.73.73,0,0,0,7.5,1.5.73.73,0,0,0,7.28,1,.75.75,0,0,0,6.22,1,.73.73,0,0,0,6,1.5.75.75,0,0,0,7.28,2Zm2.65.48A.69.69,0,0,0,9.7,3a.7.7,0,0,0,.23.53.7.7,0,0,0,.53.23A.69.69,0,0,0,11,3.57.72.72,0,0,0,11.2,3,.71.71,0,0,0,11,2.51a.73.73,0,0,0-.54-.21A.72.72,0,0,0,9.93,2.51Zm1.54,3.71A.75.75,0,1,0,12,6,.73.73,0,0,0,11.47,6.22Z"/></g></g></svg>