<svg xmlns="http://www.w3.org/2000/svg" viewBox="0 0 10.5 12"><defs><style>.cls-1{fill:#ff7676;}</style></defs><title>Asset 3</title><g id="Layer_2" data-name="Layer 2"><g id="Layer_1-2" data-name="Layer 1"><path class="cls-1" d="M10.34,2a.54.54,0,0,1,.16.4v.28a.27.27,0,0,1-.28.28H9.75v7.88A1.13,1.13,0,0,1,8.63,12H1.88a1.08,1.08,0,0,1-.8-.33,1.07,1.07,0,0,1-.33-.79V3H.28a.3.3,0,0,1-.2-.08A.3.3,0,0,1,0,2.72V2.44A.54.54,0,0,1,.16,2a.55.55,0,0,1,.4-.16H2.3L3.09.54a1.1,1.1,0,0,1,.43-.4A1.19,1.19,0,0,1,4.08,0H6.42A1.16,1.16,0,0,1,7,.14a1.1,1.1,0,0,1,.43.4L8.2,1.88H9.94A.55.55,0,0,1,10.34,2ZM1.88,3v7.73a.13.13,0,0,0,0,.1.14.14,0,0,0,.1.05H8.48a.18.18,0,0,0,.15-.15V3ZM4.5,9.47a.27.27,0,0,1-.28.28H3.66a.28.28,0,0,1-.2-.08.26.26,0,0,1-.08-.2V4.41a.27.27,0,0,1,.28-.28h.56a.26.26,0,0,1,.2.08.28.28,0,0,1,.08.2ZM6.89,1.88,6.47,1.2a.13.13,0,0,0-.12-.07H4.15A.13.13,0,0,0,4,1.2l-.42.68ZM6.28,4.13a.26.26,0,0,0-.2.08.28.28,0,0,0-.08.2V9.47a.27.27,0,0,0,.28.28h.56A.28.28,0,0,0,7,9.67a.27.27,0,0,0,.09-.2V4.41A.25.25,0,0,0,7,4.21a.24.24,0,0,0-.2-.08Z"/></g></g></svg>