<svg xmlns="http://www.w3.org/2000/svg" viewBox="0 0 27.13 27.13"><defs><style>.cls-1{fill:#231f20;}</style></defs><title>Asset 4</title><g id="Layer_2" data-name="Layer 2"><g id="Layer_1-2" data-name="Layer 1"><path class="cls-1" d="M19,13.56H15.31V7.22a.64.64,0,0,0-.19-.47.66.66,0,0,0-.46-.19H12.47a.65.65,0,0,0-.66.66v6.34H8.15a.6.6,0,0,0-.6.41.55.55,0,0,0,.16.69l5.42,5.41a.49.49,0,0,0,.43.22.64.64,0,0,0,.49-.22l5.42-5.41a.6.6,0,0,0,.11-.69A.6.6,0,0,0,19,13.56Z"/><path class="cls-1" d="M25.29,6.78a13.66,13.66,0,0,0-4.95-4.95A13.14,13.14,0,0,0,13.56,0,13.17,13.17,0,0,0,6.78,1.83a13.66,13.66,0,0,0-4.95,5A13.17,13.17,0,0,0,0,13.56a13.11,13.11,0,0,0,1.83,6.78,13.66,13.66,0,0,0,5,4.95,13.41,13.41,0,0,0,13.56,0,13.66,13.66,0,0,0,4.95-4.95,13.12,13.12,0,0,0,1.84-6.78A13.17,13.17,0,0,0,25.29,6.78ZM23,19a10.91,10.91,0,0,1-4,4,10.57,10.57,0,0,1-5.47,1.48A10.57,10.57,0,0,1,8.09,23a11.06,11.06,0,0,1-4-4,10.66,10.66,0,0,1-1.47-5.47A10.66,10.66,0,0,1,4.1,8.09a11.22,11.22,0,0,1,4-4,10.66,10.66,0,0,1,5.47-1.47A10.66,10.66,0,0,1,19,4.1a11.06,11.06,0,0,1,4,4,10.57,10.57,0,0,1,1.48,5.47A10.57,10.57,0,0,1,23,19Z"/></g></g></svg>