<svg xmlns="http://www.w3.org/2000/svg" viewBox="0 0 209.29 274.04"><defs><style>.cls-1{fill:#fff;}</style></defs><title>Asset 1</title><g id="Layer_2" data-name="Layer 2"><g id="Layer_1-2" data-name="Layer 1"><path d="M36.05,103.73v-3q0-19.39,0-38.79c0-23.39,10.49-40.76,30.62-52.27C92.93-5.3,128.58-2.68,151.78,16,165.35,26.9,172.6,41.29,173,58.77c.32,13.85.11,27.71.13,41.57v3.33c1,.07,1.87.18,2.75.18,5.84,0,11.67-.06,17.5.06a10,10,0,0,1,4.34,1c7,3.74,10.94,9.57,11.41,17.59.06,1,.05,2,.05,3,0,38-.18,76,.11,114.07.09,11.73-6.8,21-18.9,23.14-15.52,2.72-30.95,6.05-46.53,8.36a282,282,0,0,1-56.1,2.46c-24.38-1.27-48.15-6-71.74-12C6.37,259.21.07,251.35.05,241.39q-.12-58.95,0-117.88a20.18,20.18,0,0,1,7.48-16,13.94,13.94,0,0,1,10.15-3.74c5.14.25,10.31.07,15.46,0C34,103.85,34.93,103.78,36.05,103.73Zm25.38,0h86.33V101c0-14.7-.1-29.4,0-44.09.09-9.83-4-17.43-11.71-23.21-17.12-12.83-45.28-13-62.57-.31C65.5,39.26,61.26,47,61.39,57.14c.17,13.43,0,26.86,0,40.3ZM91.82,211.75c0,1,0,1.52,0,2,.16,6.68,4.91,12.06,11.16,12.64,7.05.66,12.79-3.35,14.1-10.21a25.6,25.6,0,0,0,0-7.05c-.71-7.4-1.34-14.81-2.45-22.15-.72-4.76.85-8.26,4-11.65,4.63-5,7.41-10.76,5.83-18-1.74-8-8.2-14.81-15.88-16.28a19.86,19.86,0,0,0-20.91,9.12c-4.77,7.54-4.5,15.46.83,22.67,1.06,1.42,2.28,2.72,3.42,4.07a10.66,10.66,0,0,1,2.68,8.62C93.52,194.44,92.7,203.35,91.82,211.75Z"/><path class="cls-1" d="M61.43,103.68V97.44c0-13.44.13-26.87,0-40.3C61.26,47,65.5,39.26,73.51,33.39,90.8,20.74,119,20.87,136.08,33.7c7.72,5.78,11.8,13.38,11.71,23.21-.13,14.69,0,29.39,0,44.09v2.68Z"/></g></g></svg>