<svg xmlns="http://www.w3.org/2000/svg" viewBox="0 0 11.81 9"><defs><style>.cls-1{fill:#4285f4;}</style></defs><title>Asset 26</title><g id="Layer_2" data-name="Layer 2"><g id="Layer_1-2" data-name="Layer 1"><path class="cls-1" d="M4.5,8.72A.27.27,0,0,1,4.22,9h-2A2.15,2.15,0,0,1,.66,8.34,2.14,2.14,0,0,1,0,6.75V2.25A2.15,2.15,0,0,1,.66.66,2.15,2.15,0,0,1,2.25,0h2a.3.3,0,0,1,.2.08.3.3,0,0,1,.08.2v.94a.3.3,0,0,1-.08.2.3.3,0,0,1-.2.08h-2a.75.75,0,0,0-.75.75v4.5a.75.75,0,0,0,.75.75h2a.27.27,0,0,1,.28.28ZM11.65,4.9a.58.58,0,0,0,0-.8L7.71.16A.54.54,0,0,0,7.31,0a.55.55,0,0,0-.56.56V2.81H3.56a.56.56,0,0,0-.4.17.54.54,0,0,0-.16.4V5.63A.53.53,0,0,0,3.16,6a.56.56,0,0,0,.4.17H6.75V8.44A.55.55,0,0,0,7.31,9a.54.54,0,0,0,.4-.16Z"/><path class="cls-1" d="M4.5,8.72A.27.27,0,0,1,4.22,9h-2A2.15,2.15,0,0,1,.66,8.34,2.14,2.14,0,0,1,0,6.75V2.25A2.15,2.15,0,0,1,.66.66,2.15,2.15,0,0,1,2.25,0h2a.3.3,0,0,1,.2.08.3.3,0,0,1,.08.2v.94a.3.3,0,0,1-.08.2.3.3,0,0,1-.2.08h-2a.75.75,0,0,0-.75.75v4.5a.75.75,0,0,0,.75.75h2a.27.27,0,0,1,.28.28ZM11.65,4.9a.58.58,0,0,0,0-.8L7.71.16A.54.54,0,0,0,7.31,0a.55.55,0,0,0-.56.56V2.81H3.56a.56.56,0,0,0-.4.17.54.54,0,0,0-.16.4V5.63A.53.53,0,0,0,3.16,6a.56.56,0,0,0,.4.17H6.75V8.44A.55.55,0,0,0,7.31,9a.54.54,0,0,0,.4-.16Z"/></g></g></svg>