<svg xmlns="http://www.w3.org/2000/svg" viewBox="0 0 60 36"><defs><style>.cls-1{fill:#231f20;}</style></defs><title>Asset 2</title><g id="Layer_2" data-name="Layer 2"><g id="Layer_1-2" data-name="Layer 1"><path class="cls-1" d="M57,0a2.9,2.9,0,0,1,2.11.89A2.9,2.9,0,0,1,60,3V33a3,3,0,0,1-3,3H3a2.9,2.9,0,0,1-2.11-.89A2.9,2.9,0,0,1,0,33V3A2.9,2.9,0,0,1,.89.89,2.9,2.9,0,0,1,3,0ZM4.5,10.5A5.83,5.83,0,0,0,8.77,8.77,5.83,5.83,0,0,0,10.5,4.5h-6Zm0,21h6a5.83,5.83,0,0,0-1.73-4.27A5.83,5.83,0,0,0,4.5,25.5Zm25.5-3a7.79,7.79,0,0,0,4.5-1.41,9.73,9.73,0,0,0,3.28-3.84,11.91,11.91,0,0,0,0-10.5A9.8,9.8,0,0,0,34.5,8.91a7.89,7.89,0,0,0-9,0,9.89,9.89,0,0,0-3.28,3.84,11.91,11.91,0,0,0,0,10.5,9.81,9.81,0,0,0,3.28,3.84A7.83,7.83,0,0,0,30,28.5ZM33,21a.79.79,0,0,1,.75.75v1.5A.79.79,0,0,1,33,24H27a.79.79,0,0,1-.75-.75v-1.5A.79.79,0,0,1,27,21h1.5V15.84a.7.7,0,0,1-.61.1,1.13,1.13,0,0,1-.51-.28l-.75-1.32a.55.55,0,0,1-.15-.51.79.79,0,0,1,.33-.52l1.41-.93A2.15,2.15,0,0,1,29.44,12h1.31a.79.79,0,0,1,.75.75V21ZM55.5,10.5v-6h-6a5.83,5.83,0,0,0,1.73,4.27A5.83,5.83,0,0,0,55.5,10.5Zm0,21v-6a5.91,5.91,0,0,0-6,6Z"/></g></g></svg>