<svg xmlns="http://www.w3.org/2000/svg" viewBox="0 0 15 9"><defs><style>.cls-1{fill:#4285f4;}</style></defs><title>Asset 9</title><g id="Layer_2" data-name="Layer 2"><g id="Layer_1-2" data-name="Layer 1"><path class="cls-1" d="M14.25,0a.73.73,0,0,1,.53.22A.73.73,0,0,1,15,.75v7.5a.75.75,0,0,1-.75.75H.75a.73.73,0,0,1-.53-.22A.73.73,0,0,1,0,8.25V.75A.73.73,0,0,1,.22.22.73.73,0,0,1,.75,0ZM1.13,2.63a1.44,1.44,0,0,0,1.06-.44,1.44,1.44,0,0,0,.44-1.06H1.13Zm0,5.25h1.5a1.45,1.45,0,0,0-.44-1.07,1.43,1.43,0,0,0-1.06-.43ZM7.5,7.13a2,2,0,0,0,1.13-.36,2.5,2.5,0,0,0,.82-1,2.9,2.9,0,0,0,.3-1.31,2.9,2.9,0,0,0-.3-1.31,2.5,2.5,0,0,0-.82-1A1.93,1.93,0,0,0,7.5,1.88a1.88,1.88,0,0,0-1.12.35,2.44,2.44,0,0,0-.83,1,2.9,2.9,0,0,0-.3,1.31,2.9,2.9,0,0,0,.3,1.31,2.44,2.44,0,0,0,.83,1A1.89,1.89,0,0,0,7.5,7.13Zm.75-1.88a.21.21,0,0,1,.19.19v.37A.21.21,0,0,1,8.25,6H6.75a.21.21,0,0,1-.19-.19V5.44a.21.21,0,0,1,.19-.19h.38V4A.18.18,0,0,1,7,4a.24.24,0,0,1-.13-.07l-.18-.32a.16.16,0,0,1,0-.13.2.2,0,0,1,.08-.13l.35-.24A.59.59,0,0,1,7.36,3h.33a.19.19,0,0,1,.13.06.18.18,0,0,1,.06.13V5.25Zm5.63-2.62V1.13h-1.5a1.43,1.43,0,0,0,.43,1.06A1.45,1.45,0,0,0,13.88,2.63Zm0,5.25V6.38a1.47,1.47,0,0,0-1.5,1.5Z"/><path class="cls-1" d="M14.25,0a.73.73,0,0,1,.53.22A.73.73,0,0,1,15,.75v7.5a.75.75,0,0,1-.75.75H.75a.73.73,0,0,1-.53-.22A.73.73,0,0,1,0,8.25V.75A.73.73,0,0,1,.22.22.73.73,0,0,1,.75,0ZM1.13,2.63a1.44,1.44,0,0,0,1.06-.44,1.44,1.44,0,0,0,.44-1.06H1.13Zm0,5.25h1.5a1.45,1.45,0,0,0-.44-1.07,1.43,1.43,0,0,0-1.06-.43ZM7.5,7.13a2,2,0,0,0,1.13-.36,2.5,2.5,0,0,0,.82-1,2.9,2.9,0,0,0,.3-1.31,2.9,2.9,0,0,0-.3-1.31,2.5,2.5,0,0,0-.82-1A1.93,1.93,0,0,0,7.5,1.88a1.88,1.88,0,0,0-1.12.35,2.44,2.44,0,0,0-.83,1,2.9,2.9,0,0,0-.3,1.31,2.9,2.9,0,0,0,.3,1.31,2.44,2.44,0,0,0,.83,1A1.89,1.89,0,0,0,7.5,7.13Zm.75-1.88a.21.21,0,0,1,.19.19v.37A.21.21,0,0,1,8.25,6H6.75a.21.21,0,0,1-.19-.19V5.44a.21.21,0,0,1,.19-.19h.38V4A.18.18,0,0,1,7,4a.24.24,0,0,1-.13-.07l-.18-.32a.16.16,0,0,1,0-.13.2.2,0,0,1,.08-.13l.35-.24A.59.59,0,0,1,7.36,3h.33a.19.19,0,0,1,.13.06.18.18,0,0,1,.06.13V5.25Zm5.63-2.62V1.13h-1.5a1.43,1.43,0,0,0,.43,1.06A1.45,1.45,0,0,0,13.88,2.63Zm0,5.25V6.38a1.47,1.47,0,0,0-1.5,1.5Z"/></g></g></svg>