<svg xmlns="http://www.w3.org/2000/svg" viewBox="0 0 12.01 12.02"><defs><style>.cls-1{fill:#4285f4;}</style></defs><title>Asset 18</title><g id="Layer_2" data-name="Layer 2"><g id="Layer_1-2" data-name="Layer 1"><path class="cls-1" d="M10.76,6l1.08,1a.53.53,0,0,1,.14.56.52.52,0,0,1-.4.38l-1.48.38.43,1.45a.54.54,0,0,1-.14.56.53.53,0,0,1-.57.14l-1.45-.42L8,11.59a.51.51,0,0,1-.4.41.53.53,0,0,1-.54-.15L6,10.77,5,11.85A.56.56,0,0,1,4.4,12,.51.51,0,0,1,4,11.59l-.37-1.48-1.46.42a.51.51,0,0,1-.56-.14.53.53,0,0,1-.14-.56L1.9,8.38.43,8A.5.5,0,0,1,0,7.62a.51.51,0,0,1,.14-.56L1.25,6,.17,5A.49.49,0,0,1,0,4.4.49.49,0,0,1,.43,4L1.9,3.64,1.48,2.19a.53.53,0,0,1,.14-.56.51.51,0,0,1,.56-.14l1.46.42L4,.43A.51.51,0,0,1,4.41,0,.53.53,0,0,1,5,.17L6,1.28,7.06.17A.53.53,0,0,1,7.61,0,.54.54,0,0,1,8,.43l.37,1.48,1.45-.42a.53.53,0,0,1,.57.14.54.54,0,0,1,.14.56L10.1,3.64,11.58,4a.5.5,0,0,1,.4.38.51.51,0,0,1-.14.55Z"/><path d="M10.76,6l1.08,1a.53.53,0,0,1,.14.56.52.52,0,0,1-.4.38l-1.48.38.43,1.45a.54.54,0,0,1-.14.56.53.53,0,0,1-.57.14l-1.45-.42L8,11.59a.51.51,0,0,1-.4.41.53.53,0,0,1-.54-.15L6,10.77,5,11.85A.56.56,0,0,1,4.4,12,.51.51,0,0,1,4,11.59l-.37-1.48-1.46.42a.51.51,0,0,1-.56-.14.53.53,0,0,1-.14-.56L1.9,8.38.43,8A.5.5,0,0,1,0,7.62a.51.51,0,0,1,.14-.56L1.25,6,.17,5A.49.49,0,0,1,0,4.4.49.49,0,0,1,.43,4L1.9,3.64,1.48,2.19a.53.53,0,0,1,.14-.56.51.51,0,0,1,.56-.14l1.46.42L4,.43A.51.51,0,0,1,4.41,0,.53.53,0,0,1,5,.17L6,1.28,7.06.17A.53.53,0,0,1,7.61,0,.54.54,0,0,1,8,.43l.37,1.48,1.45-.42a.53.53,0,0,1,.57.14.54.54,0,0,1,.14.56L10.1,3.64,11.58,4a.5.5,0,0,1,.4.38.51.51,0,0,1-.14.55Z"/></g></g></svg>