<svg xmlns="http://www.w3.org/2000/svg" viewBox="0 0 12 10.51"><defs><style>.cls-1{fill:#4285f4;}</style></defs><title>Asset 15</title><g id="Layer_2" data-name="Layer 2"><g id="Layer_1-2" data-name="Layer 1"><path class="cls-1" d="M11.46,5.12a.81.81,0,0,1,.39.32.85.85,0,0,1,.15.48V8.5a.8.8,0,0,1-.13.44.78.78,0,0,1-.34.31L9.19,10.42a.83.83,0,0,1-.75,0L6,9.2,3.56,10.42a.83.83,0,0,1-.75,0L.47,9.25a.78.78,0,0,1-.34-.31A.8.8,0,0,1,0,8.5V5.92a.85.85,0,0,1,.15-.48.81.81,0,0,1,.39-.32l2.27-.84V1.72A.8.8,0,0,1,3,1.25.94.94,0,0,1,3.35,1L5.7.06a.78.78,0,0,1,.6,0L8.65,1a.94.94,0,0,1,.39.3.8.8,0,0,1,.15.47V4.28Zm-5.88.77L3.19,5,.8,5.89l2.39,1Zm0,2.63V6.76l-2,.92V9.53Zm-2-6.82v0L6,2.68l2.39-1v0L6,.81ZM8.39,4.3V2.57l-2,.86V5.05ZM11.2,5.89,8.81,5l-2.39.91,2.39,1Zm0,2.63V6.76l-2,.92V9.53Z"/><path class="cls-1" d="M11.46,5.12a.81.81,0,0,1,.39.32.85.85,0,0,1,.15.48V8.5a.8.8,0,0,1-.13.44.78.78,0,0,1-.34.31L9.19,10.42a.83.83,0,0,1-.75,0L6,9.2,3.56,10.42a.83.83,0,0,1-.75,0L.47,9.25a.78.78,0,0,1-.34-.31A.8.8,0,0,1,0,8.5V5.92a.85.85,0,0,1,.15-.48.81.81,0,0,1,.39-.32l2.27-.84V1.72A.8.8,0,0,1,3,1.25.94.94,0,0,1,3.35,1L5.7.06a.78.78,0,0,1,.6,0L8.65,1a.94.94,0,0,1,.39.3.8.8,0,0,1,.15.47V4.28Zm-5.88.77L3.19,5,.8,5.89l2.39,1Zm0,2.63V6.76l-2,.92V9.53Zm-2-6.82v0L6,2.68l2.39-1v0L6,.81ZM8.39,4.3V2.57l-2,.86V5.05ZM11.2,5.89,8.81,5l-2.39.91,2.39,1Zm0,2.63V6.76l-2,.92V9.53Z"/></g></g></svg>