<svg xmlns="http://www.w3.org/2000/svg" viewBox="0 0 14.06 11.16"><defs><style>.cls-1{fill:#fff;}</style></defs><title>Asset 2</title><g id="Layer_2" data-name="Layer 2"><g id="Layer_1-2" data-name="Layer 1"><path d="M.31,2.41l.17.07L4.86,4.07l.51.19c.13,0,.17.15.11.23a.25.25,0,0,1-.3.08L5,4.52.18,2.76,0,2.7a.06.06,0,0,1,0,0V8.62c0,.07,0,.1.11.12l6.56,2.38.13,0V11c0-1.88,0-3.75,0-5.62,0-.17,0-.26-.26-.3L6.25,5C6.07,4.9,6,4.81,6.07,4.7s.2-.12.37-.06a2,2,0,0,0,.6.19,2,2,0,0,0,.59-.19l1-.37c.19-.07.37,0,.37.14s-.08.14-.18.18L7.42,5.1c-.11,0-.16.09-.16.19,0,1.91,0,3.82,0,5.73v.14l.15-.05,6.52-2.36c.1,0,.12-.09.12-.16V2.7l-.09,0-2,.71a.12.12,0,0,0-.1.14v2c0,.12-.06.2-.21.25l-1.59.58c-.28.1-.42,0-.42-.2V4.25c0-.1,0-.14-.15-.18L7.4,3.3,2.75,1.62a.43.43,0,0,0-.19,0ZM5.1.68l.12,0,6.5,2.35a.37.37,0,0,0,.21,0l1.69-.61.12-.06-.82-.3L7.15,0A.31.31,0,0,0,7,0Zm-1.9.7.13.05L9.68,3.74a.56.56,0,0,0,.44,0c.37-.15.75-.28,1.14-.42l-.18-.07-2.74-1L4.68.93a.29.29,0,0,0-.18,0Zm7,4.57.09,0,1.1-.39c.09,0,.09-.08.09-.14V3.76a.38.38,0,0,0,0-.1l-.15,0-1,.35c-.11,0-.15.08-.15.17,0,.53,0,1.06,0,1.59Z"/><path class="cls-1" d="M.8,6.78l.13,0,1.93.7c.06,0,.13.05.14.08a.26.26,0,0,1,0,.21.26.26,0,0,1-.31,0L1.32,7.35C1.1,7.27.89,7.2.68,7.11S.51,7,.55,6.91.66,6.78.8,6.78Z"/><path class="cls-1" d="M2.06,8.14c0,.17-.17.25-.35.19L.83,8,.66,7.94C.54,7.89.5,7.8.56,7.71a.27.27,0,0,1,.3-.08L1.94,8A.26.26,0,0,1,2.06,8.14Z"/><path class="cls-1" d="M12.6,6.12l.17,0,.22,0h0l-.11.11-.07.07s0,0,0,0a1,1,0,0,0-.77.11A1,1,0,1,0,13.31,8a1,1,0,0,0,.22-.59v0h.25v.08a.5.5,0,0,1,0,.12,1.26,1.26,0,0,1-2,.78,1.27,1.27,0,0,1-.45-.77s0-.09,0-.13V7.27a1.22,1.22,0,0,1,.24-.63,1.25,1.25,0,0,1,.8-.5l.13,0Z"/><path class="cls-1" d="M12.4,7.87l-.55-.56L12,7.14l.38.38,1.08-1.07.17.17Z"/></g></g></svg>