<svg xmlns="http://www.w3.org/2000/svg" viewBox="0 0 266.91 287.49"><defs><style>.cls-1{fill:#231f20;}.cls-2{fill:#fff;}</style></defs><title>Asset 2</title><g id="Layer_2" data-name="Layer 2"><g id="Layer_1-2" data-name="Layer 1"><path class="cls-1" d="M0,143.55q0-56,0-111.89C0,16.23,9.73,4,24.63.77A37,37,0,0,1,32.5,0Q143.7,0,254.9,0c7.88,0,12,4.11,12,11.93v222.4c0,8-4.08,12.12-12.1,12.12q-110.92,0-221.85,0a19.12,19.12,0,0,0-5.14.44,10,10,0,0,0-7.09,11,10.35,10.35,0,0,0,9.6,8.94c1,.08,2,0,3,0h222.4c5.17,0,9,2.44,10.52,6.71,2.3,6.35-1.8,12.84-8.75,13.81a20.7,20.7,0,0,1-2.73.1H32.37c-15.78,0-28-9.24-31.46-23.93A35.6,35.6,0,0,1,0,255.44Q0,199.49,0,143.55Z"/><path class="cls-2" d="M133.5,42.42h59.62c8.18,0,12.13,3.91,12.14,12q0,18.87,0,37.74c0,7.75-4,11.78-11.81,11.78H73.37c-7.62,0-11.7-4-11.71-11.6q0-19.14,0-38.29c0-7.59,4.06-11.63,11.67-11.63Q103.41,42.4,133.5,42.42Z"/><path class="cls-2" d="M133.5,124.49q30.21,0,60.43,0c6.28,0,10.36,3.35,11.17,9a10,10,0,0,1-7.59,11.1,19.11,19.11,0,0,1-4.07.39q-60,0-120.06,0c-8,0-12.95-5.5-11.37-12.66,1.07-4.86,5.19-7.82,11.05-7.83q28.57,0,57.15,0Z"/><path class="cls-2" d="M133.18,186Q103.1,186,73,186c-6.29,0-10.38-3.34-11.2-9a10,10,0,0,1,7.82-11.17,19.3,19.3,0,0,1,3.79-.35q60,0,120.06,0c6.6,0,10.7,3.15,11.58,8.83a10,10,0,0,1-7.92,11.32,24.31,24.31,0,0,1-4.35.34Q163,186,133.18,186Z"/></g></g></svg>