<svg xmlns="http://www.w3.org/2000/svg" viewBox="0 0 12 9"><defs><style>.cls-1{fill:#4285f4;}</style></defs><title>Asset 22</title><g id="Layer_2" data-name="Layer 2"><g id="Layer_1-2" data-name="Layer 1"><path class="cls-1" d="M11.92,7.58a.3.3,0,0,1,.08.2v.94a.27.27,0,0,1-.28.28H.28a.3.3,0,0,1-.2-.08A.3.3,0,0,1,0,8.72V.28A.3.3,0,0,1,.08.08.3.3,0,0,1,.28,0h.94a.3.3,0,0,1,.2.08.3.3,0,0,1,.08.2V7.5H11.72A.3.3,0,0,1,11.92,7.58Zm-5.17-4L4.76.89a.26.26,0,0,0-.25-.1.26.26,0,0,0-.22.12l-2,3.4V6.75h9L9.14,2.34A.25.25,0,0,0,9,2.19a.23.23,0,0,0-.22.06v0Z"/><path d="M11.92,7.58a.3.3,0,0,1,.08.2v.94a.27.27,0,0,1-.28.28H.28a.3.3,0,0,1-.2-.08A.3.3,0,0,1,0,8.72V.28A.3.3,0,0,1,.08.08.3.3,0,0,1,.28,0h.94a.3.3,0,0,1,.2.08.3.3,0,0,1,.08.2V7.5H11.72A.3.3,0,0,1,11.92,7.58Zm-5.17-4L4.76.89a.26.26,0,0,0-.25-.1.26.26,0,0,0-.22.12l-2,3.4V6.75h9L9.14,2.34A.25.25,0,0,0,9,2.19a.23.23,0,0,0-.22.06v0Z"/></g></g></svg>