<svg xmlns="http://www.w3.org/2000/svg" viewBox="0 0 13.5 12"><defs><style>.cls-1{fill:#4285f4;}</style></defs><title>Asset 7</title><g id="Layer_2" data-name="Layer 2"><g id="Layer_1-2" data-name="Layer 1"><path class="cls-1" d="M5,7.5l.14.75h6.3a.52.52,0,0,1,.43.21.57.57,0,0,1,.11.47l-.14.59a1.23,1.23,0,0,1,.55.48,1.21,1.21,0,0,1,.2.69A1.31,1.31,0,0,1,11.25,12a1.23,1.23,0,0,1-.91-.37,1.33,1.33,0,0,1-.4-.93,1.15,1.15,0,0,1,.4-.95H5.41a1.22,1.22,0,0,1,.4.94,1.24,1.24,0,0,1-.41,1,1.29,1.29,0,0,1-1,.36,1.27,1.27,0,0,1-.86-.39,1.22,1.22,0,0,1-.38-.85,1.26,1.26,0,0,1,.16-.71,1.5,1.5,0,0,1,.49-.51L2.2,1.5H.56A.55.55,0,0,1,0,.94V.56A.55.55,0,0,1,.56,0H3a.52.52,0,0,1,.34.13.63.63,0,0,1,.2.32L3.73,1.5h9.21a.52.52,0,0,1,.44.21.53.53,0,0,1,.1.47l-1.1,4.87a.58.58,0,0,1-.2.33.56.56,0,0,1-.34.12Zm3.47-3V3.09a.27.27,0,0,0-.28-.28H7.59a.27.27,0,0,0-.28.28V4.5h-1a.25.25,0,0,0-.25.18.26.26,0,0,0,0,.29l1.6,1.59a.24.24,0,0,0,.19.07.23.23,0,0,0,.18-.07L9.66,5a.26.26,0,0,0,0-.29.25.25,0,0,0-.25-.18Z"/><path class="cls-1" d="M5,7.5l.14.75h6.3a.52.52,0,0,1,.43.21.57.57,0,0,1,.11.47l-.14.59a1.23,1.23,0,0,1,.55.48,1.21,1.21,0,0,1,.2.69A1.31,1.31,0,0,1,11.25,12a1.23,1.23,0,0,1-.91-.37,1.33,1.33,0,0,1-.4-.93,1.15,1.15,0,0,1,.4-.95H5.41a1.22,1.22,0,0,1,.4.94,1.24,1.24,0,0,1-.41,1,1.29,1.29,0,0,1-1,.36,1.27,1.27,0,0,1-.86-.39,1.22,1.22,0,0,1-.38-.85,1.26,1.26,0,0,1,.16-.71,1.5,1.5,0,0,1,.49-.51L2.2,1.5H.56A.55.55,0,0,1,0,.94V.56A.55.55,0,0,1,.56,0H3a.52.52,0,0,1,.34.13.63.63,0,0,1,.2.32L3.73,1.5h9.21a.52.52,0,0,1,.44.21.53.53,0,0,1,.1.47l-1.1,4.87a.58.58,0,0,1-.2.33.56.56,0,0,1-.34.12Zm3.47-3V3.09a.27.27,0,0,0-.28-.28H7.59a.27.27,0,0,0-.28.28V4.5h-1a.25.25,0,0,0-.25.18.26.26,0,0,0,0,.29l1.6,1.59a.24.24,0,0,0,.19.07.23.23,0,0,0,.18-.07L9.66,5a.26.26,0,0,0,0-.29.25.25,0,0,0-.25-.18Z"/></g></g></svg>