<svg xmlns="http://www.w3.org/2000/svg" viewBox="0 0 9 12"><defs><style>.cls-1{fill:#4285f4;}</style></defs><title>Asset 19</title><g id="Layer_2" data-name="Layer 2"><g id="Layer_1-2" data-name="Layer 1"><path class="cls-1" d="M9,10.88A1.13,1.13,0,0,1,7.88,12H1.13a1.08,1.08,0,0,1-.8-.33A1.07,1.07,0,0,1,0,10.88V2.63a1.08,1.08,0,0,1,.33-.8,1.08,1.08,0,0,1,.8-.33H3a1.41,1.41,0,0,1,.45-1,1.45,1.45,0,0,1,2.1,0A1.41,1.41,0,0,1,6,1.5H7.88a1.07,1.07,0,0,1,.79.33,1.08,1.08,0,0,1,.33.8ZM6.75,3.14A.19.19,0,0,0,6.61,3H2.39a.19.19,0,0,0-.14.14v.47a.19.19,0,0,0,.14.14H6.61a.19.19,0,0,0,.14-.14ZM4.1,1.1a.54.54,0,0,0-.16.4.57.57,0,0,0,1,.4.54.54,0,0,0,.16-.4.57.57,0,0,0-1-.4Z"/><path class="cls-1" d="M9,10.88A1.13,1.13,0,0,1,7.88,12H1.13a1.08,1.08,0,0,1-.8-.33A1.07,1.07,0,0,1,0,10.88V2.63a1.08,1.08,0,0,1,.33-.8,1.08,1.08,0,0,1,.8-.33H3a1.41,1.41,0,0,1,.45-1,1.45,1.45,0,0,1,2.1,0A1.41,1.41,0,0,1,6,1.5H7.88a1.07,1.07,0,0,1,.79.33,1.08,1.08,0,0,1,.33.8ZM6.75,3.14A.19.19,0,0,0,6.61,3H2.39a.19.19,0,0,0-.14.14v.47a.19.19,0,0,0,.14.14H6.61a.19.19,0,0,0,.14-.14ZM4.1,1.1a.54.54,0,0,0-.16.4.57.57,0,0,0,1,.4.54.54,0,0,0,.16-.4.57.57,0,0,0-1-.4Z"/></g></g></svg>