<svg xmlns="http://www.w3.org/2000/svg" viewBox="0 0 11.13 11.63"><defs><style>.cls-1{fill:#4285f4;}</style></defs><title>Asset 24</title><g id="Layer_2" data-name="Layer 2"><g id="Layer_1-2" data-name="Layer 1"><path class="cls-1" d="M11,7.22a.29.29,0,0,1,.13.14.4.4,0,0,1,0,.19,5.9,5.9,0,0,1-1.29,2.2.29.29,0,0,1-.16.09.25.25,0,0,1-.19,0l-1-.59a4.24,4.24,0,0,1-1.43.82V11.2a.37.37,0,0,1,0,.18.25.25,0,0,1-.16.1,5.91,5.91,0,0,1-2.58,0,.25.25,0,0,1-.15-.1.3.3,0,0,1-.06-.18V10.05a4.44,4.44,0,0,1-1.43-.82l-1,.59a.25.25,0,0,1-.19,0,.29.29,0,0,1-.16-.09A5.64,5.64,0,0,1,0,7.55a.31.31,0,0,1,0-.19.25.25,0,0,1,.13-.14l1-.59A5,5,0,0,1,1.13,5l-1-.58A.25.25,0,0,1,0,4.27a.31.31,0,0,1,0-.19A5.64,5.64,0,0,1,1.3,1.88a.39.39,0,0,1,.16-.1.31.31,0,0,1,.19,0l1,.59a4.63,4.63,0,0,1,1.43-.82V.42A.27.27,0,0,1,4.12.25.27.27,0,0,1,4.27.14a5.91,5.91,0,0,1,2.58,0A.26.26,0,0,1,7,.25a.34.34,0,0,1,0,.17V1.57a4.41,4.41,0,0,1,1.43.82l1-.59a.31.31,0,0,1,.19,0,.39.39,0,0,1,.16.1,5.9,5.9,0,0,1,1.29,2.2.41.41,0,0,1,0,.19.29.29,0,0,1-.13.14L10,5a4.52,4.52,0,0,1,0,1.64ZM6.89,4.49a1.8,1.8,0,0,0-1.33-.55A1.88,1.88,0,0,0,3.69,5.81a1.8,1.8,0,0,0,.55,1.33,1.87,1.87,0,0,0,2.65,0,1.8,1.8,0,0,0,.55-1.33A1.8,1.8,0,0,0,6.89,4.49Z"/><path class="cls-1" d="M11,7.22a.29.29,0,0,1,.13.14.4.4,0,0,1,0,.19,5.9,5.9,0,0,1-1.29,2.2.29.29,0,0,1-.16.09.25.25,0,0,1-.19,0l-1-.59a4.24,4.24,0,0,1-1.43.82V11.2a.37.37,0,0,1,0,.18.25.25,0,0,1-.16.1,5.91,5.91,0,0,1-2.58,0,.25.25,0,0,1-.15-.1.3.3,0,0,1-.06-.18V10.05a4.44,4.44,0,0,1-1.43-.82l-1,.59a.25.25,0,0,1-.19,0,.29.29,0,0,1-.16-.09A5.64,5.64,0,0,1,0,7.55a.31.31,0,0,1,0-.19.25.25,0,0,1,.13-.14l1-.59A5,5,0,0,1,1.13,5l-1-.58A.25.25,0,0,1,0,4.27a.31.31,0,0,1,0-.19A5.64,5.64,0,0,1,1.3,1.88a.39.39,0,0,1,.16-.1.31.31,0,0,1,.19,0l1,.59a4.63,4.63,0,0,1,1.43-.82V.42A.27.27,0,0,1,4.12.25.27.27,0,0,1,4.27.14a5.91,5.91,0,0,1,2.58,0A.26.26,0,0,1,7,.25a.34.34,0,0,1,0,.17V1.57a4.41,4.41,0,0,1,1.43.82l1-.59a.31.31,0,0,1,.19,0,.39.39,0,0,1,.16.1,5.9,5.9,0,0,1,1.29,2.2.41.41,0,0,1,0,.19.29.29,0,0,1-.13.14L10,5a4.52,4.52,0,0,1,0,1.64ZM6.89,4.49a1.8,1.8,0,0,0-1.33-.55A1.88,1.88,0,0,0,3.69,5.81a1.8,1.8,0,0,0,.55,1.33,1.87,1.87,0,0,0,2.65,0,1.8,1.8,0,0,0,.55-1.33A1.8,1.8,0,0,0,6.89,4.49Z"/></g></g></svg>